	<svg width="38" height="38" viewBox="0 0 38 38" fill="none" xmlns="http://www.w3.org/2000/svg">
		<rect class="cart-rect1" x="0.5" y="0.5" width="37" height="37" rx="6.5" stroke="#F42758"/>
		<g clip-path="url(#clip0_227_11135)" >
		<path class="cart-path1" d="M16.1051 27.3332C16.5412 27.3332 16.8946 26.9601 16.8946 26.4998C16.8946 26.0396 16.5412 25.6665 16.1051 25.6665C15.6691 25.6665 15.3157 26.0396 15.3157 26.4998C15.3157 26.9601 15.6691 27.3332 16.1051 27.3332Z" fill="#F42758" stroke="#F42758" stroke-width="2" stroke-linecap="round" stroke-linejoin="round"/>
		<path class="cart-path1" d="M24.7895 27.3334C25.2255 27.3334 25.5789 26.9603 25.5789 26.5001C25.5789 26.0398 25.2255 25.6667 24.7895 25.6667C24.3535 25.6667 24 26.0398 24 26.5001C24 26.9603 24.3535 27.3334 24.7895 27.3334Z" fill="#F42758" stroke="#F42758" stroke-width="2" stroke-linecap="round" stroke-linejoin="round"/>
		<path class="cart-path2" d="M9.78955 9.83325H12.9474L15.0632 20.9916C15.1354 21.3752 15.3332 21.7199 15.6218 21.9652C15.9105 22.2104 16.2717 22.3407 16.6422 22.3333H24.3159C24.6864 22.3407 25.0476 22.2104 25.3362 21.9652C25.6249 21.7199 25.8226 21.3752 25.8948 20.9916L27.158 13.9999H13.7369" stroke="#F42758" stroke-width="2" stroke-linecap="round" stroke-linejoin="round"/>
		<path class="cart-path3" d="M24.7529 13.8531L16.4076 14.1088C15.1277 14.1481 14.2101 15.3633 14.5237 16.604L15.5305 20.5877C15.7573 21.4851 16.5709 22.1073 17.4968 22.0917L23.6538 21.9881C24.5363 21.9733 25.3065 21.3816 25.5492 20.5321L26.7306 16.3963C27.1023 15.0952 26.1042 13.8117 24.7529 13.8531Z" fill="#F42758"/>
		</g>
		<defs>
		<clipPath id="clip0_227_11135">
		<rect width="20" height="20" fill="white" transform="translate(9 9)"/>
		</clipPath>
		<style>
			svg{
				cursor: pointer;
			}
			svg:hover .cart-path1{
				stroke: white;
				fill: white;
			}
			svg:hover .cart-path2{
				stroke: white;
			}
			svg:hover .cart-path3{
				fill: white;
			}
			svg:hover .cart-rect1{
				fill: #FD5E7A;
				stroke: #FD5E7A;
			}
			svg:active .cart-rect1{
				fill: #F42758;
				stroke: #F42758;
			}
		</style>
		</defs>
		</svg>
